<svg width="28" height="28" viewBox="0 0 28 28" fill="none" xmlns="http://www.w3.org/2000/svg">
<mask id="mask0_13736_802" style="mask-type:luminance" maskUnits="userSpaceOnUse" x="0" y="2" width="28" height="24">
<path d="M28 2H0V26H28V2Z" fill="white"/>
</mask>
<g mask="url(#mask0_13736_802)">
<path fill-rule="evenodd" clip-rule="evenodd" d="M7.17969 22.9095C9.74448 24.8778 12.7074 25.9995 15.8673 25.9995C20.5663 25.9995 24.832 23.5116 27.9975 19.4593C26.661 17.7488 25.1289 16.3161 23.4491 15.2329L20.752 16.5048C21.3317 17.3567 21.6693 18.3708 21.6693 19.4593C21.6693 22.4829 19.0722 24.9337 15.8673 24.9337C13.3771 24.9337 11.2541 23.4531 10.431 21.3745L7.17969 22.9082V22.9095ZM13.8709 19.753C13.9356 20.1504 14.1326 20.5199 14.4379 20.8083C14.8163 21.1658 15.3312 21.3665 15.8673 21.3652C16.9829 21.3652 17.8876 20.5119 17.8876 19.4593C17.8876 18.9423 17.6695 18.4731 17.315 18.1289L13.8723 19.753H13.8709Z" fill="#00BA78"/>
<path d="M7.918 19.4173L27.5766 10.49L23.256 2L21.0246 9.50251L18.3431 4.2315L16.1104 11.734L13.4288 6.46296L11.1961 13.9655L8.51453 8.69442L6.28179 16.1969L3.60024 10.9259L0 23.0137L4.91427 20.7822L7.918 19.4186V19.4173Z" fill="#00BA78"/>
</g>
</svg>
