<svg width="44" height="44" viewBox="0 0 44 44" fill="none" xmlns="http://www.w3.org/2000/svg">
<rect width="44" height="44" rx="12" fill="white"/>
<g clip-path="url(#clip0_13863_1405)">
<path d="M34.8489 19.2783C35.5296 17.2355 35.2952 14.9977 34.2067 13.1396C32.5699 10.2896 29.2792 8.82333 26.0655 9.51333C24.6358 7.90271 22.5817 6.98677 20.4283 6.9999C17.1433 6.9924 14.2286 9.10739 13.218 12.233C11.1077 12.6652 9.28611 13.9861 8.22018 15.8583C6.57111 18.7008 6.94705 22.284 9.15018 24.7215C8.46955 26.7643 8.70393 29.0021 9.79236 30.8602C11.4292 33.7102 14.7199 35.1765 17.9336 34.4865C19.3624 36.0971 21.4174 37.013 23.5708 36.999C26.8577 37.0074 29.7733 34.8905 30.7839 31.7621C32.8942 31.3299 34.7158 30.009 35.7817 28.1368C37.4289 25.2943 37.0521 21.714 34.8499 19.2765L34.8489 19.2783ZM23.5727 35.0386C22.2574 35.0405 20.9833 34.5802 19.9736 33.7374C20.0196 33.713 20.0992 33.669 20.1508 33.6371L26.1246 30.1871C26.4302 30.0136 26.6177 29.6883 26.6158 29.3368V20.9152L29.1405 22.373C29.1677 22.3861 29.1855 22.4124 29.1892 22.4424V29.4165C29.1855 32.5177 26.6739 35.0321 23.5727 35.0386ZM11.4939 29.8796C10.8349 28.7415 10.5977 27.4074 10.8236 26.1127C10.8677 26.139 10.9455 26.1868 11.0008 26.2186L16.9746 29.6686C17.2774 29.8458 17.6524 29.8458 17.9561 29.6686L25.2489 25.4574V28.373C25.2508 28.403 25.2367 28.4321 25.2133 28.4508L19.1749 31.9374C16.4852 33.4861 13.0502 32.5655 11.4949 29.8796H11.4939ZM9.92174 16.8399C10.578 15.6999 11.6139 14.828 12.8477 14.3752C12.8477 14.4268 12.8449 14.5177 12.8449 14.5815V21.4824C12.843 21.833 13.0305 22.1583 13.3352 22.3318L20.628 26.5421L18.1033 27.9999C18.078 28.0168 18.0461 28.0196 18.018 28.0074L11.9786 24.518C9.29455 22.9636 8.37393 19.5296 9.9208 16.8408L9.92174 16.8399ZM30.6649 21.6671L23.3721 17.4558L25.8967 15.999C25.9221 15.9821 25.9539 15.9793 25.9821 15.9915L32.0214 19.478C34.7102 21.0315 35.6317 24.4711 34.0783 27.1599C33.4211 28.298 32.3861 29.1699 31.1533 29.6236V22.5165C31.1561 22.1658 30.9696 21.8415 30.6658 21.6671H30.6649ZM33.1774 17.8852C33.1333 17.858 33.0555 17.8111 33.0002 17.7793L27.0264 14.3293C26.7236 14.1521 26.3486 14.1521 26.0449 14.3293L18.7521 18.5405V15.6249C18.7502 15.5949 18.7642 15.5658 18.7877 15.5471L24.8261 12.0633C27.5158 10.5118 30.9546 11.4352 32.5052 14.1258C33.1605 15.2621 33.3977 16.5924 33.1755 17.8852H33.1774ZM17.3796 23.0818L14.8539 21.624C14.8267 21.6108 14.8089 21.5846 14.8052 21.5546V14.5805C14.8071 11.4755 17.3261 8.95927 20.4311 8.96114C21.7446 8.96114 23.0158 9.42239 24.0255 10.2624C23.9796 10.2868 23.9008 10.3308 23.8483 10.3627L17.8746 13.8127C17.5689 13.9861 17.3814 14.3105 17.3833 14.6621L17.3796 23.0799V23.0818ZM18.7511 20.1249L21.9996 18.249L25.248 20.124V23.8749L21.9996 25.7499L18.7511 23.8749V20.1249Z" fill="black"/>
</g>
<defs>
<clipPath id="clip0_13863_1405">
<rect width="30" height="30" fill="white" transform="translate(7 7)"/>
</clipPath>
</defs>
</svg>
