<svg width="20" height="20" viewBox="0 0 20 20" fill="none" xmlns="http://www.w3.org/2000/svg">
<rect width="20" height="20" rx="5" fill="#5865F2"/>
<path d="M14.3697 5.97481C13.5256 5.58736 12.6259 5.30529 11.6862 5.14453C11.5708 5.35303 11.4361 5.63359 11.3432 5.85666C10.3438 5.70729 9.35361 5.70729 8.37256 5.85666C8.27973 5.63359 8.14193 5.35303 8.02555 5.14453C7.08486 5.30529 6.18415 5.58841 5.34005 5.97689C3.64413 8.52127 3.18435 11.0024 3.41424 13.4483C4.53927 14.2789 5.62953 14.7834 6.70137 15.1135C6.96603 14.7531 7.20201 14.3699 7.40531 13.9668C7.02077 13.8217 6.65243 13.6427 6.30441 13.4358C6.39673 13.3676 6.48703 13.2963 6.57427 13.2229C8.72104 14.2173 11.0533 14.2173 13.1745 13.2229C13.2628 13.2963 13.3531 13.3676 13.4444 13.4358C13.0953 13.6437 12.726 13.8227 12.3414 13.9678C12.5447 14.3699 12.7797 14.7541 13.0454 15.1145C14.1183 14.7844 15.2096 14.2799 16.3346 13.4483C16.6044 10.6127 15.8741 8.15422 14.3697 5.97481ZM7.71153 11.9442C7.06968 11.9442 6.54341 11.3499 6.54341 10.6262C6.54341 9.90245 7.05845 9.30717 7.71153 9.30717C8.36462 9.30717 8.89089 9.90138 8.87966 10.6262C8.88068 11.3499 8.36462 11.9442 7.71153 11.9442ZM12.0341 11.9442C11.3923 11.9442 10.866 11.3499 10.866 10.6262C10.866 9.90245 11.3811 9.30717 12.0341 9.30717C12.6872 9.30717 13.2135 9.90138 13.2023 10.6262C13.2023 11.3499 12.6872 11.9442 12.0341 11.9442Z" fill="white"/>
</svg>
