<svg width="44" height="44" viewBox="0 0 44 44" fill="none" xmlns="http://www.w3.org/2000/svg">
<rect width="44" height="44" rx="12" fill="black"/>
<path d="M17.875 26.5407L28.9565 18.3506C29.4998 17.9491 30.2763 18.1057 30.5352 18.7294C31.8976 22.0185 31.2889 25.9712 28.5782 28.6851C25.8676 31.3989 22.096 31.9941 18.6487 30.6386L14.8828 32.3843C20.2842 36.0806 26.8432 35.1665 30.9419 31.0601C34.193 27.8051 35.1999 23.3683 34.2584 19.3673L34.2669 19.3758C32.9016 13.4981 34.6026 11.1487 38.0869 6.34458C38.1693 6.23067 38.2518 6.11676 38.3343 6L33.7492 10.5905V10.5763L17.8722 26.5436" fill="white"/>
<path d="M15.5867 28.5312C11.7098 24.8234 12.3782 19.0852 15.6862 15.7762C18.1323 13.3271 22.14 12.3276 25.6385 13.797L29.3959 12.0599C28.719 11.5701 27.8514 11.0432 26.8559 10.673C22.3562 8.81914 16.969 9.7418 13.3112 13.4011C9.79271 16.9238 8.68626 22.3402 10.5863 26.9621C12.0056 30.4164 9.67893 32.8597 7.3352 35.3259C6.50465 36.2001 5.67126 37.0744 5 37.9999L15.5838 28.534" fill="white"/>
</svg>
