<svg width="20" height="20" viewBox="0 0 20 20" fill="none" xmlns="http://www.w3.org/2000/svg">
<g clip-path="url(#clip0_13720_1496)">
<path d="M0.406345 12.8763C1.64258 16.9973 5.4667 19.9998 9.99265 19.9998C15.5189 19.9998 19.9989 15.5226 19.9989 9.99992C19.9989 4.47713 15.5189 0 9.99265 0C4.68965 0 0.350517 4.12262 0.0078125 9.33557C0.0078125 10.8333 0.0078125 11.4583 0.406345 12.8763Z" fill="url(#paint0_linear_13720_1496)"/>
<path d="M9.47894 7.54525L7.03039 11.0999C6.45318 11.0737 5.87211 11.237 5.38978 11.554L0.0130834 9.34202C0.0130834 9.34202 -0.11133 11.3875 0.407152 12.9119L4.20818 14.4793C4.39903 15.3317 4.98411 16.0793 5.84733 16.439C7.2596 17.0287 8.88802 16.3565 9.47551 14.9445C9.62844 14.5754 9.69973 14.1883 9.68937 13.8021L13.2788 11.3016C15.3754 11.3016 17.0795 9.59352 17.0795 7.49582C17.0795 5.398 15.3754 3.69141 13.2788 3.69141C11.2537 3.69141 9.36544 5.45838 9.47894 7.54525ZM8.89059 14.699C8.43588 15.79 7.18139 16.3076 6.0909 15.8535C5.58784 15.6441 5.20803 15.2604 4.98892 14.8029L6.22618 15.3153C7.03039 15.6501 7.95303 15.269 8.28731 14.4655C8.62266 13.6613 8.24224 12.7377 7.43846 12.4029L6.15947 11.8733C6.65296 11.6862 7.21403 11.6794 7.73824 11.8974C8.26667 12.1171 8.67673 12.5308 8.89402 13.0596C9.11137 13.5883 9.11052 14.172 8.89059 14.699ZM13.2788 10.0313C11.8831 10.0313 10.7467 8.89395 10.7467 7.49582C10.7467 6.09883 11.8831 4.96118 13.2788 4.96118C14.6754 4.96118 15.8117 6.09883 15.8117 7.49582C15.8117 8.89395 14.6754 10.0313 13.2788 10.0313ZM11.3814 7.49196C11.3814 6.44026 12.2335 5.58718 13.2831 5.58718C14.3335 5.58718 15.1855 6.44026 15.1855 7.49196C15.1855 8.54381 14.3335 9.39609 13.2831 9.39609C12.2335 9.39609 11.3814 8.54381 11.3814 7.49196Z" fill="white"/>
</g>
<defs>
<linearGradient id="paint0_linear_13720_1496" x1="19.1136" y1="-14" x2="10.0034" y2="19.9998" gradientUnits="userSpaceOnUse">
<stop stop-color="#111D2E"/>
<stop offset="0.21248" stop-color="#051839"/>
<stop offset="0.40695" stop-color="#0A1B48"/>
<stop offset="0.5811" stop-color="#132E62"/>
<stop offset="0.7376" stop-color="#144B7E"/>
<stop offset="0.87279" stop-color="#136497"/>
<stop offset="1" stop-color="#1387B8"/>
</linearGradient>
<clipPath id="clip0_13720_1496">
<rect width="20" height="20" fill="white"/>
</clipPath>
</defs>
</svg>
