<svg width="20" height="20" viewBox="0 0 20 20" fill="none" xmlns="http://www.w3.org/2000/svg">
<g clip-path="url(#clip0_13720_1456)">
<path d="M10 0C7.34844 0 4.80312 1.05422 2.92969 2.92891C1.05433 4.80435 0.000536638 7.34779 0 10C0 12.6511 1.05469 15.1964 2.92969 17.0711C4.80312 18.9458 7.34844 20 10 20C12.6516 20 15.1969 18.9458 17.0703 17.0711C18.9453 15.1964 20 12.6511 20 10C20 7.34891 18.9453 4.80359 17.0703 2.92891C15.1969 1.05422 12.6516 0 10 0Z" fill="url(#paint0_linear_13720_1456)"/>
<path d="M4.52768 9.89453C7.4433 8.62453 9.38705 7.78724 10.3589 7.38266C13.1371 6.2275 13.7136 6.02688 14.0902 6.02008C14.173 6.01875 14.3574 6.03922 14.4777 6.13648C14.5777 6.21852 14.6058 6.32945 14.6199 6.40734C14.6324 6.48516 14.6495 6.6625 14.6355 6.80094C14.4855 8.38219 13.8339 12.2194 13.5027 13.9905C13.3636 14.7398 13.0871 14.9911 12.8199 15.0156C12.2386 15.0691 11.798 14.6319 11.2355 14.2633C10.3558 13.6862 9.85893 13.3272 9.00424 12.7642C8.01674 12.1136 8.65736 11.7559 9.21986 11.1716C9.36674 11.0186 11.9261 8.69125 11.9745 8.48016C11.9808 8.45375 11.9871 8.35531 11.9277 8.30344C11.8699 8.25141 11.7839 8.26922 11.7214 8.28328C11.6324 8.30328 10.2277 9.23266 7.50268 11.0713C7.10424 11.3453 6.7433 11.4789 6.4183 11.4719C6.06205 11.4642 5.37455 11.27 4.86361 11.1041C4.23861 10.9005 3.74018 10.7928 3.78393 10.447C3.8058 10.267 4.05424 10.0828 4.52768 9.89453Z" fill="white"/>
</g>
<defs>
<linearGradient id="paint0_linear_13720_1456" x1="10" y1="0" x2="10" y2="20" gradientUnits="userSpaceOnUse">
<stop stop-color="#2AABEE"/>
<stop offset="1" stop-color="#229ED9"/>
</linearGradient>
<clipPath id="clip0_13720_1456">
<rect width="20" height="20" fill="white"/>
</clipPath>
</defs>
</svg>
